<svg width="1200" height="600" viewBox="0 0 1200 600" xmlns="http://www.w3.org/2000/svg">
  <defs>
    <linearGradient id="bgGradient" x1="0%" y1="0%" x2="100%" y2="100%">
      <stop offset="0%" style="stop-color:#0b1e2e;stop-opacity:1" />
      <stop offset="50%" style="stop-color:#2c2c2c;stop-opacity:1" />
      <stop offset="100%" style="stop-color:#0b1e2e;stop-opacity:1" />
    </linearGradient>
  </defs>
  
  <!-- Background -->
  <rect width="1200" height="600" fill="url(#bgGradient)"/>
  
  <!-- Neural network pattern -->
  <g opacity="0.3">
    <!-- Nodes -->
    <circle cx="100" cy="100" r="3" fill="#C0C0C0"/>
    <circle cx="300" cy="150" r="3" fill="#C0C0C0"/>
    <circle cx="500" cy="120" r="3" fill="#C0C0C0"/>
    <circle cx="700" cy="180" r="3" fill="#C0C0C0"/>
    <circle cx="900" cy="140" r="3" fill="#C0C0C0"/>
    <circle cx="1100" cy="160" r="3" fill="#C0C0C0"/>
    
    <circle cx="200" cy="300" r="3" fill="#C0C0C0"/>
    <circle cx="400" cy="280" r="3" fill="#C0C0C0"/>
    <circle cx="600" cy="320" r="3" fill="#C0C0C0"/>
    <circle cx="800" cy="290" r="3" fill="#C0C0C0"/>
    <circle cx="1000" cy="330" r="3" fill="#C0C0C0"/>
    
    <circle cx="150" cy="450" r="3" fill="#C0C0C0"/>
    <circle cx="350" cy="480" r="3" fill="#C0C0C0"/>
    <circle cx="550" cy="460" r="3" fill="#C0C0C0"/>
    <circle cx="750" cy="490" r="3" fill="#C0C0C0"/>
    <circle cx="950" cy="470" r="3" fill="#C0C0C0"/>
    
    <!-- Connections -->
    <path d="M100,100 L300,150 L500,120 L700,180 L900,140 L1100,160" stroke="#C0C0C0" stroke-width="1" fill="none"/>
    <path d="M200,300 L400,280 L600,320 L800,290 L1000,330" stroke="#C0C0C0" stroke-width="1" fill="none"/>
    <path d="M150,450 L350,480 L550,460 L750,490 L950,470" stroke="#C0C0C0" stroke-width="1" fill="none"/>
    
    <!-- Vertical connections -->
    <path d="M300,150 L200,300" stroke="#C0C0C0" stroke-width="0.5" fill="none"/>
    <path d="M500,120 L400,280" stroke="#C0C0C0" stroke-width="0.5" fill="none"/>
    <path d="M700,180 L600,320" stroke="#C0C0C0" stroke-width="0.5" fill="none"/>
    <path d="M400,280 L350,480" stroke="#C0C0C0" stroke-width="0.5" fill="none"/>
    <path d="M600,320 L550,460" stroke="#C0C0C0" stroke-width="0.5" fill="none"/>
  </g>
  
  <!-- Abstract geometric overlay -->
  <g opacity="0.2">
    <polygon points="50,50 150,80 120,150 70,130" fill="#4682B4"/>
    <polygon points="1050,400 1150,430 1120,500 1070,480" fill="#4682B4"/>
    <circle cx="1000" cy="100" r="30" fill="none" stroke="#4682B4" stroke-width="2"/>
    <circle cx="200" cy="500" r="25" fill="none" stroke="#4682B4" stroke-width="2"/>
  </g>
</svg>