<svg width="24" height="24" viewBox="0 0 24 24" fill="none" xmlns="http://www.w3.org/2000/svg">
    <path d="M12.186 24h-.007c-3.581-.024-6.334-1.205-8.184-3.509C2.35 18.44 1.5 15.586 1.5 12.068 1.5 5.443 6.537.5 12.186.5c2.888 0 5.51 1.043 7.365 2.933 1.863 1.899 2.949 4.547 2.949 7.201 0 3.94-1.7 6.133-3.086 7.334-1.487 1.29-3.183 1.793-4.02 1.896a.994.994 0 01-1.063-.73.995.995 0 01.73-1.062c.613-.082 1.897-.447 2.97-1.378 1.061-.92 2.375-2.618 2.375-5.56 0-2.197-.896-4.24-2.454-5.624C16.563 2.184 14.521 1.398 12.186 1.398c-5.123 0-9.291 4.364-9.291 9.17 0 3.176.739 5.63 2.131 7.439 1.507 1.957 3.734 3.012 6.582 3.036 2.818.022 5.073-1.043 6.367-2.992a.992.992 0 011.394-.16c.442.316.546.922.232 1.362-1.601 2.24-4.44 3.74-7.978 3.74l-.015.007z" fill="#C0C0C0"/>
    <path d="M9.951 17.696c.49.472 1.074.792 1.762.792.925 0 1.631-.457 2.04-1.238.215-.41.316-.855.361-1.264.045-.392.05-.8.01-1.186a27.788 27.788 0 00-.112-1.594 15.406 15.406 0 00-.112-.926l-.007-.043a.993.993 0 01.128-.769.99.99 0 01.66-.395l.03-.004c1.486-.179 2.643-.81 2.643-1.972 0-.55-.337-1.246-1.096-1.809-.783-.576-1.864-.914-3.225-.94-1.984.04-3.688.759-4.805 2.026-1.11 1.259-1.66 2.97-1.542 4.836.118 1.885.901 3.388 2.208 4.227.7.45 1.504.69 2.42.668a.995.995 0 01.997.991.991.991 0 01-.99.996c-1.283.03-2.468-.304-3.476-.946-1.75-1.116-2.796-3.038-2.949-5.41-.149-2.373.603-4.509 2.122-6.027C6.769 6.192 8.984 5.266 11.51 5.218c1.63.03 3.021.457 4.123 1.27 1.182.871 1.853 2.051 1.853 3.301 0 1.894-1.51 3.266-3.855 3.562l.016.096c.023.187.05.38.073.584.06.53.097 1.14.108 1.722.01.502.007.935-.06 1.315-.059.326-.17.607-.36.852-.354.46-.906.72-1.646.72-.568 0-1.16-.234-1.785-.746a.99.99 0 01.029-1.396c.377-.372.98-.39 1.378-.044l-.022-.03z" fill="#C0C0C0"/>
</svg>