<svg xmlns="http://www.w3.org/2000/svg" viewBox="0 0 100 100" width="100" height="100">
  <!-- Background circle -->
  <circle cx="50" cy="50" r="45" fill="#1e1e1e" stroke="#C0C0C0" stroke-width="1"/>
  
  <!-- Owl silhouette with brain pattern -->
  <g transform="translate(50, 50)">
    <!-- Owl body -->
    <ellipse cx="0" cy="5" rx="18" ry="22" fill="#C0C0C0"/>
    
    <!-- Owl head with brain-like patterns -->
    <circle cx="0" cy="-10" r="15" fill="#C0C0C0"/>
    
    <!-- Brain convolutions inside head -->
    <path d="M -10,-15 Q -5,-18 0,-15 T 10,-15" fill="none" stroke="#2c2c2c" stroke-width="1.5"/>
    <path d="M -8,-10 Q -3,-13 2,-10 T 8,-10" fill="none" stroke="#2c2c2c" stroke-width="1.5"/>
    <path d="M -6,-5 Q 0,-8 6,-5" fill="none" stroke="#2c2c2c" stroke-width="1.5"/>
    
    <!-- Eyes with perception rays -->
    <circle cx="-5" cy="-10" r="4" fill="#2c2c2c"/>
    <circle cx="5" cy="-10" r="4" fill="#2c2c2c"/>
    <circle cx="-5" cy="-10" r="2" fill="#4682B4"/>
    <circle cx="5" cy="-10" r="2" fill="#4682B4"/>
    
    <!-- Perception rays emanating from eyes -->
    <path d="M -9,-10 L -12,-10 M -9,-8 L -12,-7 M -9,-12 L -12,-13" stroke="#4682B4" stroke-width="0.5" opacity="0.6"/>
    <path d="M 9,-10 L 12,-10 M 9,-8 L 12,-7 M 9,-12 L 12,-13" stroke="#4682B4" stroke-width="0.5" opacity="0.6"/>
    
    <!-- Beak -->
    <path d="M 0,-5 L -2,-2 L 0,-3 L 2,-2 Z" fill="#2c2c2c"/>
    
    <!-- Wings with knowledge patterns -->
    <path d="M -18,0 Q -25,5 -20,15 L -18,10" fill="#C0C0C0"/>
    <path d="M 18,0 Q 25,5 20,15 L 18,10" fill="#C0C0C0"/>
    
    <!-- Knowledge network lines on wings -->
    <circle cx="-22" cy="8" r="1.5" fill="#4682B4" opacity="0.5"/>
    <circle cx="22" cy="8" r="1.5" fill="#4682B4" opacity="0.5"/>
    <line x1="-22" y1="8" x2="-18" y2="5" stroke="#4682B4" stroke-width="0.5" opacity="0.5"/>
    <line x1="22" y1="8" x2="18" y2="5" stroke="#4682B4" stroke-width="0.5" opacity="0.5"/>
  </g>
  
  <!-- Surrounding knowledge nodes -->
  <circle cx="20" cy="20" r="2" fill="#4682B4" opacity="0.3"/>
  <circle cx="80" cy="20" r="2" fill="#4682B4" opacity="0.3"/>
  <circle cx="20" cy="80" r="2" fill="#4682B4" opacity="0.3"/>
  <circle cx="80" cy="80" r="2" fill="#4682B4" opacity="0.3"/>
  
  <!-- Connecting lines forming a subtle network -->
  <line x1="20" y1="20" x2="35" y2="35" stroke="#4682B4" stroke-width="0.5" opacity="0.2"/>
  <line x1="80" y1="20" x2="65" y2="35" stroke="#4682B4" stroke-width="0.5" opacity="0.2"/>
  <line x1="20" y1="80" x2="35" y2="65" stroke="#4682B4" stroke-width="0.5" opacity="0.2"/>
  <line x1="80" y1="80" x2="65" y2="65" stroke="#4682B4" stroke-width="0.5" opacity="0.2"/>
</svg>