<svg width="64" height="64" viewBox="0 0 64 64" xmlns="http://www.w3.org/2000/svg">
  <!-- Background circle -->
  <circle cx="32" cy="32" r="30" fill="#2c2c2c" stroke="#C0C0C0" stroke-width="1"/>
  
  <!-- Presentation screen -->
  <rect x="18" y="16" width="28" height="20" fill="#36454F" stroke="#C0C0C0" stroke-width="1"/>
  
  <!-- Screen content - growth chart -->
  <g opacity="0.8">
    <rect x="22" y="30" width="3" height="4" fill="#4682B4"/>
    <rect x="27" y="28" width="3" height="6" fill="#4682B4"/>
    <rect x="32" y="25" width="3" height="9" fill="#4682B4"/>
    <rect x="37" y="22" width="3" height="12" fill="#4682B4"/>
    
    <!-- Upward arrow -->
    <path d="M41,20 L44,17 L47,20" stroke="#C0C0C0" stroke-width="1" fill="none"/>
    <line x1="44" y1="17" x2="44" y2="24" stroke="#C0C0C0" stroke-width="1"/>
  </g>
  
  <!-- Screen stand -->
  <line x1="32" y1="36" x2="32" y2="42" stroke="#C0C0C0" stroke-width="2"/>
  <line x1="26" y1="42" x2="38" y2="42" stroke="#C0C0C0" stroke-width="2"/>
  
  <!-- Presenter figure -->
  <g transform="translate(15,40)" opacity="0.7">
    <circle cx="0" cy="-5" r="3" fill="#C0C0C0"/>
    <rect x="-2" y="-2" width="4" height="8" fill="#C0C0C0"/>
    <!-- Pointing gesture -->
    <line x1="2" y1="0" x2="8" y2="-3" stroke="#C0C0C0" stroke-width="1"/>
  </g>
  
  <!-- Knowledge transfer lines -->
  <g opacity="0.5">
    <path d="M48,25 L54,20" stroke="#4682B4" stroke-width="1" fill="none"/>
    <path d="M50,30 L56,30" stroke="#4682B4" stroke-width="1" fill="none"/>
    <path d="M48,35 L54,40" stroke="#4682B4" stroke-width="1" fill="none"/>
  </g>
</svg>