<svg width="64" height="64" viewBox="0 0 64 64" xmlns="http://www.w3.org/2000/svg">
  <!-- Background circle -->
  <circle cx="32" cy="32" r="30" fill="#2c2c2c" stroke="#C0C0C0" stroke-width="1"/>
  
  <!-- Strategic compass/navigation -->
  <g transform="translate(32,32)">
    <!-- Outer compass ring -->
    <circle cx="0" cy="0" r="18" fill="none" stroke="#C0C0C0" stroke-width="1.5" opacity="0.8"/>
    
    <!-- Cardinal directions (strategy points) -->
    <g stroke="#C0C0C0" stroke-width="1" fill="#C0C0C0">
      <!-- North - primary direction -->
      <path d="M0,-18 L-3,-12 L0,-14 L3,-12 Z" fill="#C0C0C0"/>
      <!-- East -->
      <circle cx="18" cy="0" r="2" opacity="0.7"/>
      <!-- South -->
      <circle cx="0" cy="18" r="2" opacity="0.7"/>
      <!-- West -->
      <circle cx="-18" cy="0" r="2" opacity="0.7"/>
    </g>
    
    <!-- AI neural network pattern in center -->
    <g opacity="0.9">
      <!-- Central hub -->
      <circle cx="0" cy="0" r="3" fill="#C0C0C0"/>
      
      <!-- Neural connections -->
      <g stroke="#C0C0C0" stroke-width="0.5" fill="none">
        <path d="M0,0 L-8,-8"/>
        <path d="M0,0 L8,-8"/>
        <path d="M0,0 L-8,8"/>
        <path d="M0,0 L8,8"/>
        <path d="M0,0 L-12,0"/>
        <path d="M0,0 L12,0"/>
        <path d="M0,0 L0,-12"/>
        <path d="M0,0 L0,12"/>
      </g>
      
      <!-- Neural nodes -->
      <g fill="#C0C0C0">
        <circle cx="-8" cy="-8" r="1.5"/>
        <circle cx="8" cy="-8" r="1.5"/>
        <circle cx="-8" cy="8" r="1.5"/>
        <circle cx="8" cy="8" r="1.5"/>
        <circle cx="-12" cy="0" r="1.5"/>
        <circle cx="12" cy="0" r="1.5"/>
        <circle cx="0" cy="-12" r="1.5"/>
        <circle cx="0" cy="12" r="1.5"/>
      </g>
    </g>
    
    <!-- Strategic path indicators -->
    <g opacity="0.5" stroke="#C0C0C0" stroke-width="0.5" fill="none">
      <path d="M-10,-10 L-5,-5" stroke-dasharray="2,1"/>
      <path d="M10,-10 L5,-5" stroke-dasharray="2,1"/>
      <path d="M-10,10 L-5,5" stroke-dasharray="2,1"/>
      <path d="M10,10 L5,5" stroke-dasharray="2,1"/>
    </g>
  </g>
  
  <!-- Corner accent markers -->
  <g opacity="0.4">
    <circle cx="12" cy="12" r="1" fill="#C0C0C0"/>
    <circle cx="52" cy="12" r="1" fill="#C0C0C0"/>
    <circle cx="12" cy="52" r="1" fill="#C0C0C0"/>
    <circle cx="52" cy="52" r="1" fill="#C0C0C0"/>
  </g>
</svg>