<svg width="64" height="64" viewBox="0 0 64 64" xmlns="http://www.w3.org/2000/svg">
  <!-- Background circle -->
  <circle cx="32" cy="32" r="30" fill="#2c2c2c" stroke="#C0C0C0" stroke-width="1"/>
  
  <!-- Executive figure with AI brain -->
  <g transform="translate(32,20)">
    <!-- Head/Brain -->
    <circle cx="0" cy="0" r="8" fill="none" stroke="#C0C0C0" stroke-width="1.5"/>
    
    <!-- AI neural pattern inside head -->
    <g opacity="0.8">
      <circle cx="-3" cy="-2" r="1" fill="#C0C0C0"/>
      <circle cx="3" cy="-2" r="1" fill="#C0C0C0"/>
      <circle cx="0" cy="2" r="1" fill="#C0C0C0"/>
      <circle cx="-3" cy="3" r="1" fill="#C0C0C0"/>
      <circle cx="3" cy="3" r="1" fill="#C0C0C0"/>
      
      <!-- Neural connections -->
      <g stroke="#C0C0C0" stroke-width="0.5" fill="none">
        <path d="M-3,-2 L0,2 L3,-2"/>
        <path d="M-3,-2 L-3,3"/>
        <path d="M3,-2 L3,3"/>
        <path d="M-3,3 L0,2 L3,3"/>
      </g>
    </g>
    
    <!-- Executive body (simplified) -->
    <path d="M-6,8 L-4,16 L-2,22 L2,22 L4,16 L6,8" 
          stroke="#C0C0C0" stroke-width="1.5" fill="none"/>
    
    <!-- Tie/professional indicator -->
    <line x1="0" y1="8" x2="0" y2="14" stroke="#C0C0C0" stroke-width="1" opacity="0.7"/>
  </g>
  
  <!-- Knowledge/growth arrows emanating -->
  <g opacity="0.6">
    <!-- Upward growth arrows -->
    <g stroke="#C0C0C0" stroke-width="1" fill="#C0C0C0">
      <!-- Left arrow -->
      <path d="M18,30 L18,25 L16,27 L18,25 L20,27 Z"/>
      <line x1="18" y1="30" x2="18" y2="35" stroke="#C0C0C0" stroke-width="1"/>
      
      <!-- Right arrow -->
      <path d="M46,30 L46,25 L44,27 L46,25 L48,27 Z"/>
      <line x1="46" y1="30" x2="46" y2="35" stroke="#C0C0C0" stroke-width="1"/>
    </g>
  </g>
  
  <!-- Leadership network connections -->
  <g opacity="0.4">
    <!-- Small figures representing team -->
    <circle cx="15" cy="45" r="3" fill="#C0C0C0"/>
    <circle cx="32" cy="48" r="3" fill="#C0C0C0"/>
    <circle cx="49" cy="45" r="3" fill="#C0C0C0"/>
    
    <!-- Connecting lines -->
    <g stroke="#C0C0C0" stroke-width="0.5" fill="none">
      <path d="M32,42 L15,45"/>
      <path d="M32,42 L32,48"/>
      <path d="M32,42 L49,45"/>
    </g>
  </g>
  
  <!-- Corner accent dots -->
  <g opacity="0.3">
    <circle cx="10" cy="10" r="1" fill="#C0C0C0"/>
    <circle cx="54" cy="10" r="1" fill="#C0C0C0"/>
  </g>
</svg>