<svg width="300" height="200" viewBox="0 0 300 200" xmlns="http://www.w3.org/2000/svg">
  <rect width="300" height="200" fill="#1e1e1e"/>
  
  <!-- Network diagram -->
  <g opacity="0.8">
    <!-- Nodes -->
    <circle cx="60" cy="60" r="8" fill="#36454F" stroke="#C0C0C0" stroke-width="1"/>
    <circle cx="150" cy="40" r="8" fill="#36454F" stroke="#C0C0C0" stroke-width="1"/>
    <circle cx="240" cy="60" r="8" fill="#36454F" stroke="#C0C0C0" stroke-width="1"/>
    <circle cx="90" cy="120" r="8" fill="#36454F" stroke="#C0C0C0" stroke-width="1"/>
    <circle cx="210" cy="120" r="8" fill="#36454F" stroke="#C0C0C0" stroke-width="1"/>
    <circle cx="150" cy="160" r="8" fill="#36454F" stroke="#C0C0C0" stroke-width="1"/>
    
    <!-- Device icons in nodes -->
    <rect x="57" y="57" width="6" height="6" fill="#4682B4"/>
    <rect x="147" y="37" width="6" height="6" fill="#4682B4"/>
    <rect x="237" y="57" width="6" height="6" fill="#4682B4"/>
    <rect x="87" y="117" width="6" height="6" fill="#4682B4"/>
    <rect x="207" y="117" width="6" height="6" fill="#4682B4"/>
    <rect x="147" y="157" width="6" height="6" fill="#4682B4"/>
  </g>
  
  <!-- Connections -->
  <g opacity="0.6">
    <path d="M60,60 L150,40 L240,60 L210,120 L150,160 L90,120 L60,60" stroke="#C0C0C0" stroke-width="2" fill="none"/>
    <path d="M150,40 L90,120" stroke="#C0C0C0" stroke-width="1" fill="none"/>
    <path d="M150,40 L210,120" stroke="#C0C0C0" stroke-width="1" fill="none"/>
    <path d="M240,60 L90,120" stroke="#C0C0C0" stroke-width="1" fill="none"/>
  </g>
  
  <!-- Data flow arrows -->
  <g opacity="0.7">
    <defs>
      <marker id="arrowhead" markerWidth="10" markerHeight="7" 
              refX="10" refY="3.5" orient="auto">
        <polygon points="0 0, 10 3.5, 0 7" fill="#4682B4" />
      </marker>
    </defs>
    <path d="M100,80 L130,70" stroke="#4682B4" stroke-width="1.5" fill="none" marker-end="url(#arrowhead)"/>
    <path d="M170,70 L200,80" stroke="#4682B4" stroke-width="1.5" fill="none" marker-end="url(#arrowhead)"/>
  </g>
</svg>