<svg width="300" height="200" viewBox="0 0 300 200" xmlns="http://www.w3.org/2000/svg">
  <rect width="300" height="200" fill="#1e1e1e"/>
  
  <!-- Book -->
  <rect x="80" y="70" width="80" height="60" fill="#36454F" stroke="#C0C0C0" stroke-width="1"/>
  <line x1="120" y1="70" x2="120" y2="130" stroke="#C0C0C0" stroke-width="1"/>
  <line x1="90" y1="85" x2="110" y2="85" stroke="#C0C0C0" stroke-width="0.5"/>
  <line x1="90" y1="95" x2="110" y2="95" stroke="#C0C0C0" stroke-width="0.5"/>
  <line x1="90" y1="105" x2="110" y2="105" stroke="#C0C0C0" stroke-width="0.5"/>
  <line x1="130" y1="85" x2="150" y2="85" stroke="#C0C0C0" stroke-width="0.5"/>
  <line x1="130" y1="95" x2="150" y2="95" stroke="#C0C0C0" stroke-width="0.5"/>
  <line x1="130" y1="105" x2="150" y2="105" stroke="#C0C0C0" stroke-width="0.5"/>
  
  <!-- AI symbol emerging from book -->
  <g opacity="0.8">
    <circle cx="200" cy="60" r="20" fill="none" stroke="#4682B4" stroke-width="2"/>
    <circle cx="195" cy="55" r="2" fill="#4682B4"/>
    <circle cx="205" cy="55" r="2" fill="#4682B4"/>
    <path d="M190,65 Q200,70 210,65" stroke="#4682B4" stroke-width="2" fill="none"/>
    
    <!-- Knowledge rays -->
    <path d="M220,40 L240,30" stroke="#4682B4" stroke-width="1.5" opacity="0.6"/>
    <path d="M225,60 L245,60" stroke="#4682B4" stroke-width="1.5" opacity="0.6"/>
    <path d="M220,80 L240,90" stroke="#4682B4" stroke-width="1.5" opacity="0.6"/>
  </g>
  
  <!-- Circuit connections -->
  <g opacity="0.5">
    <path d="M50,140 L70,140 L70,120 L100,120" stroke="#C0C0C0" stroke-width="1" fill="none"/>
    <circle cx="70" cy="140" r="1.5" fill="#C0C0C0"/>
  </g>
</svg>