<svg width="300" height="200" viewBox="0 0 300 200" xmlns="http://www.w3.org/2000/svg">
  <rect width="300" height="200" fill="#1e1e1e"/>
  
  <!-- Building silhouette -->
  <rect x="50" y="80" width="40" height="80" fill="#36454F"/>
  <rect x="100" y="60" width="45" height="100" fill="#36454F"/>
  <rect x="155" y="70" width="35" height="90" fill="#36454F"/>
  <rect x="200" y="50" width="48" height="110" fill="#36454F"/>
  
  <!-- Windows -->
  <rect x="55" y="90" width="6" height="8" fill="#C0C0C0" opacity="0.8"/>
  <rect x="65" y="90" width="6" height="8" fill="#C0C0C0" opacity="0.8"/>
  <rect x="75" y="90" width="6" height="8" fill="#C0C0C0" opacity="0.8"/>
  <rect x="55" y="110" width="6" height="8" fill="#C0C0C0" opacity="0.8"/>
  <rect x="65" y="110" width="6" height="8" fill="#C0C0C0" opacity="0.8"/>
  <rect x="75" y="110" width="6" height="8" fill="#C0C0C0" opacity="0.8"/>
  
  <rect x="110" y="75" width="6" height="8" fill="#C0C0C0" opacity="0.8"/>
  <rect x="120" y="75" width="6" height="8" fill="#C0C0C0" opacity="0.8"/>
  <rect x="130" y="75" width="6" height="8" fill="#C0C0C0" opacity="0.8"/>
  <rect x="110" y="95" width="6" height="8" fill="#C0C0C0" opacity="0.8"/>
  <rect x="120" y="95" width="6" height="8" fill="#C0C0C0" opacity="0.8"/>
  <rect x="130" y="95" width="6" height="8" fill="#C0C0C0" opacity="0.8"/>
  
  <!-- Circuit overlay -->
  <path d="M30,40 L60,40 L60,30 L90,30 L90,45 L120,45" stroke="#C0C0C0" stroke-width="1.5" fill="none" opacity="0.6"/>
  <circle cx="60" cy="40" r="2" fill="#C0C0C0" opacity="0.6"/>
  <circle cx="90" cy="30" r="2" fill="#C0C0C0" opacity="0.6"/>
  
  <!-- AI Brain icon -->
  <circle cx="240" cy="30" r="15" fill="none" stroke="#4682B4" stroke-width="2"/>
  <path d="M232,25 Q240,20 248,25 Q240,35 232,25" fill="#4682B4" opacity="0.7"/>
</svg>