<svg width="300" height="200" viewBox="0 0 300 200" xmlns="http://www.w3.org/2000/svg">
  <rect width="300" height="200" fill="#1e1e1e"/>
  
  <!-- Briefcase -->
  <rect x="100" y="80" width="100" height="60" rx="5" fill="#36454F" stroke="#C0C0C0" stroke-width="1"/>
  <rect x="130" y="70" width="40" height="15" fill="#36454F" stroke="#C0C0C0" stroke-width="1"/>
  <line x1="120" y1="95" x2="180" y2="95" stroke="#C0C0C0" stroke-width="0.5"/>
  <line x1="120" y1="105" x2="180" y2="105" stroke="#C0C0C0" stroke-width="0.5"/>
  <line x1="120" y1="115" x2="180" y2="115" stroke="#C0C0C0" stroke-width="0.5"/>
  <line x1="120" y1="125" x2="180" y2="125" stroke="#C0C0C0" stroke-width="0.5"/>
  
  <!-- Chart overlay -->
  <g opacity="0.8">
    <rect x="210" y="120" width="12" height="20" fill="#4682B4"/>
    <rect x="225" y="110" width="12" height="30" fill="#4682B4"/>
    <rect x="240" y="100" width="12" height="40" fill="#4682B4"/>
    <rect x="255" y="90" width="12" height="50" fill="#4682B4"/>
  </g>
  
  <!-- Network connections -->
  <g opacity="0.5">
    <circle cx="60" cy="50" r="3" fill="#C0C0C0"/>
    <circle cx="90" cy="30" r="3" fill="#C0C0C0"/>
    <circle cx="120" cy="40" r="3" fill="#C0C0C0"/>
    <path d="M60,50 L90,30 L120,40" stroke="#C0C0C0" stroke-width="1" fill="none"/>
  </g>
</svg>